<mxfile host="app.diagrams.net" modified="2023-08-01T17:28:48.887Z" agent="Mozilla/5.0 (Windows NT 10.0; Win64; x64) AppleWebKit/537.36 (KHTML, like Gecko) Chrome/115.0.0.0 Safari/537.36" etag="yEtQzDR5hZMCoKGXV_E4" version="21.6.6" type="github">
  <diagram name="Page-1" id="eVGZ7Q5hx50TwENhV6vI">
    <mxGraphModel dx="990" dy="1558" grid="1" gridSize="10" guides="1" tooltips="1" connect="1" arrows="1" fold="1" page="1" pageScale="1" pageWidth="1100" pageHeight="850" math="0" shadow="0">
      <root>
        <mxCell id="0" />
        <mxCell id="1" parent="0" />
        <mxCell id="hCIDlrJWbCCCF7kBdMga-100" style="edgeStyle=orthogonalEdgeStyle;shape=link;rounded=0;orthogonalLoop=1;jettySize=auto;html=1;exitX=0.035;exitY=0.32;exitDx=0;exitDy=0;exitPerimeter=0;entryX=0;entryY=0.25;entryDx=0;entryDy=0;elbow=vertical;" edge="1" parent="1" source="hCIDlrJWbCCCF7kBdMga-3" target="hCIDlrJWbCCCF7kBdMga-98">
          <mxGeometry relative="1" as="geometry">
            <Array as="points">
              <mxPoint x="60" y="463" />
              <mxPoint x="60" y="370" />
            </Array>
          </mxGeometry>
        </mxCell>
        <mxCell id="hCIDlrJWbCCCF7kBdMga-101" style="edgeStyle=orthogonalEdgeStyle;shape=link;rounded=0;orthogonalLoop=1;jettySize=auto;html=1;exitX=0.965;exitY=0.32;exitDx=0;exitDy=0;exitPerimeter=0;entryX=0;entryY=0.75;entryDx=0;entryDy=0;elbow=vertical;" edge="1" parent="1" source="hCIDlrJWbCCCF7kBdMga-3" target="hCIDlrJWbCCCF7kBdMga-98">
          <mxGeometry relative="1" as="geometry" />
        </mxCell>
        <mxCell id="hCIDlrJWbCCCF7kBdMga-3" value="" style="pointerEvents=1;verticalLabelPosition=bottom;shadow=0;dashed=0;align=center;html=1;verticalAlign=top;shape=mxgraph.electrical.miscellaneous.f_m_3_conductor_3" vertex="1" parent="1">
          <mxGeometry x="80" y="450" width="40" height="40" as="geometry" />
        </mxCell>
        <mxCell id="hCIDlrJWbCCCF7kBdMga-17" value="" style="verticalLabelPosition=bottom;dashed=0;shadow=0;html=1;align=center;verticalAlign=top;shape=mxgraph.cabinets.cb_1p;rotation=90;" vertex="1" parent="1">
          <mxGeometry x="250" y="50" width="9" height="50" as="geometry" />
        </mxCell>
        <mxCell id="hCIDlrJWbCCCF7kBdMga-27" value="" style="group;rotation=-90;" vertex="1" connectable="0" parent="1">
          <mxGeometry x="400" y="180" width="120" height="80" as="geometry" />
        </mxCell>
        <mxCell id="hCIDlrJWbCCCF7kBdMga-28" value="" style="shape=ext;double=1;rounded=0;whiteSpace=wrap;html=1;rotation=-90;" vertex="1" parent="hCIDlrJWbCCCF7kBdMga-27">
          <mxGeometry width="120" height="80" as="geometry" />
        </mxCell>
        <mxCell id="hCIDlrJWbCCCF7kBdMga-29" value="" style="ellipse;shape=doubleEllipse;whiteSpace=wrap;html=1;rotation=-90;" vertex="1" parent="hCIDlrJWbCCCF7kBdMga-27">
          <mxGeometry x="30" y="-10" width="20" height="20" as="geometry" />
        </mxCell>
        <mxCell id="hCIDlrJWbCCCF7kBdMga-30" value="" style="ellipse;shape=doubleEllipse;whiteSpace=wrap;html=1;rotation=-90;" vertex="1" parent="hCIDlrJWbCCCF7kBdMga-27">
          <mxGeometry x="70" y="-10" width="20" height="20" as="geometry" />
        </mxCell>
        <mxCell id="hCIDlrJWbCCCF7kBdMga-31" value="+" style="text;html=1;strokeColor=none;fillColor=none;align=center;verticalAlign=middle;whiteSpace=wrap;rounded=0;rotation=-90;" vertex="1" parent="hCIDlrJWbCCCF7kBdMga-27">
          <mxGeometry x="30" y="5" width="20" height="30" as="geometry" />
        </mxCell>
        <mxCell id="hCIDlrJWbCCCF7kBdMga-32" value="-" style="text;html=1;strokeColor=none;fillColor=none;align=center;verticalAlign=middle;whiteSpace=wrap;rounded=0;rotation=-90;" vertex="1" parent="hCIDlrJWbCCCF7kBdMga-27">
          <mxGeometry x="70" y="5" width="20" height="30" as="geometry" />
        </mxCell>
        <mxCell id="hCIDlrJWbCCCF7kBdMga-70" value="12V" style="text;html=1;strokeColor=none;fillColor=none;align=center;verticalAlign=middle;whiteSpace=wrap;rounded=0;" vertex="1" parent="hCIDlrJWbCCCF7kBdMga-27">
          <mxGeometry x="30" y="50" width="60" height="30" as="geometry" />
        </mxCell>
        <mxCell id="hCIDlrJWbCCCF7kBdMga-33" value="" style="group;rotation=-90;" vertex="1" connectable="0" parent="1">
          <mxGeometry x="500" y="180" width="120" height="80" as="geometry" />
        </mxCell>
        <mxCell id="hCIDlrJWbCCCF7kBdMga-34" value="" style="shape=ext;double=1;rounded=0;whiteSpace=wrap;html=1;rotation=-90;" vertex="1" parent="hCIDlrJWbCCCF7kBdMga-33">
          <mxGeometry width="120" height="80" as="geometry" />
        </mxCell>
        <mxCell id="hCIDlrJWbCCCF7kBdMga-35" value="" style="ellipse;shape=doubleEllipse;whiteSpace=wrap;html=1;rotation=-90;" vertex="1" parent="hCIDlrJWbCCCF7kBdMga-33">
          <mxGeometry x="30" y="-10" width="20" height="20" as="geometry" />
        </mxCell>
        <mxCell id="hCIDlrJWbCCCF7kBdMga-36" value="" style="ellipse;shape=doubleEllipse;whiteSpace=wrap;html=1;rotation=-90;" vertex="1" parent="hCIDlrJWbCCCF7kBdMga-33">
          <mxGeometry x="70" y="-10" width="20" height="20" as="geometry" />
        </mxCell>
        <mxCell id="hCIDlrJWbCCCF7kBdMga-37" value="+" style="text;html=1;strokeColor=none;fillColor=none;align=center;verticalAlign=middle;whiteSpace=wrap;rounded=0;rotation=-90;" vertex="1" parent="hCIDlrJWbCCCF7kBdMga-33">
          <mxGeometry x="30" y="5" width="20" height="30" as="geometry" />
        </mxCell>
        <mxCell id="hCIDlrJWbCCCF7kBdMga-38" value="-" style="text;html=1;strokeColor=none;fillColor=none;align=center;verticalAlign=middle;whiteSpace=wrap;rounded=0;rotation=-90;" vertex="1" parent="hCIDlrJWbCCCF7kBdMga-33">
          <mxGeometry x="70" y="5" width="20" height="30" as="geometry" />
        </mxCell>
        <mxCell id="hCIDlrJWbCCCF7kBdMga-71" value="12V" style="text;html=1;strokeColor=none;fillColor=none;align=center;verticalAlign=middle;whiteSpace=wrap;rounded=0;" vertex="1" parent="hCIDlrJWbCCCF7kBdMga-33">
          <mxGeometry x="30" y="50" width="60" height="30" as="geometry" />
        </mxCell>
        <mxCell id="hCIDlrJWbCCCF7kBdMga-39" value="" style="group;rotation=-90;" vertex="1" connectable="0" parent="1">
          <mxGeometry x="120" y="180" width="120" height="80" as="geometry" />
        </mxCell>
        <mxCell id="hCIDlrJWbCCCF7kBdMga-40" value="" style="shape=ext;double=1;rounded=0;whiteSpace=wrap;html=1;rotation=-90;" vertex="1" parent="hCIDlrJWbCCCF7kBdMga-39">
          <mxGeometry width="120" height="80" as="geometry" />
        </mxCell>
        <mxCell id="hCIDlrJWbCCCF7kBdMga-41" value="" style="ellipse;shape=doubleEllipse;whiteSpace=wrap;html=1;rotation=-90;" vertex="1" parent="hCIDlrJWbCCCF7kBdMga-39">
          <mxGeometry x="30" y="-10" width="20" height="20" as="geometry" />
        </mxCell>
        <mxCell id="hCIDlrJWbCCCF7kBdMga-42" value="" style="ellipse;shape=doubleEllipse;whiteSpace=wrap;html=1;rotation=-90;" vertex="1" parent="hCIDlrJWbCCCF7kBdMga-39">
          <mxGeometry x="70" y="-10" width="20" height="20" as="geometry" />
        </mxCell>
        <mxCell id="hCIDlrJWbCCCF7kBdMga-43" value="+" style="text;html=1;strokeColor=none;fillColor=none;align=center;verticalAlign=middle;whiteSpace=wrap;rounded=0;rotation=-90;" vertex="1" parent="hCIDlrJWbCCCF7kBdMga-39">
          <mxGeometry x="30" y="5" width="20" height="30" as="geometry" />
        </mxCell>
        <mxCell id="hCIDlrJWbCCCF7kBdMga-44" value="-" style="text;html=1;strokeColor=none;fillColor=none;align=center;verticalAlign=middle;whiteSpace=wrap;rounded=0;rotation=-90;" vertex="1" parent="hCIDlrJWbCCCF7kBdMga-39">
          <mxGeometry x="70" y="5" width="20" height="30" as="geometry" />
        </mxCell>
        <mxCell id="hCIDlrJWbCCCF7kBdMga-68" value="12V" style="text;html=1;strokeColor=none;fillColor=none;align=center;verticalAlign=middle;whiteSpace=wrap;rounded=0;" vertex="1" parent="hCIDlrJWbCCCF7kBdMga-39">
          <mxGeometry x="30" y="50" width="60" height="30" as="geometry" />
        </mxCell>
        <mxCell id="hCIDlrJWbCCCF7kBdMga-45" value="" style="group;rotation=-90;" vertex="1" connectable="0" parent="1">
          <mxGeometry x="220" y="180" width="120" height="80" as="geometry" />
        </mxCell>
        <mxCell id="hCIDlrJWbCCCF7kBdMga-46" value="" style="shape=ext;double=1;rounded=0;whiteSpace=wrap;html=1;rotation=-90;" vertex="1" parent="hCIDlrJWbCCCF7kBdMga-45">
          <mxGeometry width="120" height="80" as="geometry" />
        </mxCell>
        <mxCell id="hCIDlrJWbCCCF7kBdMga-47" value="" style="ellipse;shape=doubleEllipse;whiteSpace=wrap;html=1;rotation=-90;" vertex="1" parent="hCIDlrJWbCCCF7kBdMga-45">
          <mxGeometry x="30" y="-10" width="20" height="20" as="geometry" />
        </mxCell>
        <mxCell id="hCIDlrJWbCCCF7kBdMga-48" value="" style="ellipse;shape=doubleEllipse;whiteSpace=wrap;html=1;rotation=-90;" vertex="1" parent="hCIDlrJWbCCCF7kBdMga-45">
          <mxGeometry x="70" y="-10" width="20" height="20" as="geometry" />
        </mxCell>
        <mxCell id="hCIDlrJWbCCCF7kBdMga-49" value="+" style="text;html=1;strokeColor=none;fillColor=none;align=center;verticalAlign=middle;whiteSpace=wrap;rounded=0;rotation=-90;" vertex="1" parent="hCIDlrJWbCCCF7kBdMga-45">
          <mxGeometry x="30" y="5" width="20" height="30" as="geometry" />
        </mxCell>
        <mxCell id="hCIDlrJWbCCCF7kBdMga-50" value="-" style="text;html=1;strokeColor=none;fillColor=none;align=center;verticalAlign=middle;whiteSpace=wrap;rounded=0;rotation=-90;" vertex="1" parent="hCIDlrJWbCCCF7kBdMga-45">
          <mxGeometry x="70" y="5" width="20" height="30" as="geometry" />
        </mxCell>
        <mxCell id="hCIDlrJWbCCCF7kBdMga-69" value="12V" style="text;html=1;strokeColor=none;fillColor=none;align=center;verticalAlign=middle;whiteSpace=wrap;rounded=0;" vertex="1" parent="hCIDlrJWbCCCF7kBdMga-45">
          <mxGeometry x="30" y="50" width="60" height="30" as="geometry" />
        </mxCell>
        <mxCell id="hCIDlrJWbCCCF7kBdMga-56" style="edgeStyle=elbowEdgeStyle;shape=link;rounded=0;orthogonalLoop=1;jettySize=auto;elbow=vertical;html=1;exitX=1;exitY=0.5;exitDx=0;exitDy=0;entryX=1;entryY=0.5;entryDx=0;entryDy=0;" edge="1" parent="1" source="hCIDlrJWbCCCF7kBdMga-42" target="hCIDlrJWbCCCF7kBdMga-47">
          <mxGeometry relative="1" as="geometry">
            <Array as="points">
              <mxPoint x="230" y="140" />
            </Array>
          </mxGeometry>
        </mxCell>
        <mxCell id="hCIDlrJWbCCCF7kBdMga-57" style="edgeStyle=elbowEdgeStyle;shape=link;rounded=0;orthogonalLoop=1;jettySize=auto;elbow=vertical;html=1;exitX=1;exitY=0.5;exitDx=0;exitDy=0;entryX=1;entryY=0.5;entryDx=0;entryDy=0;" edge="1" parent="1" source="hCIDlrJWbCCCF7kBdMga-29" target="hCIDlrJWbCCCF7kBdMga-48">
          <mxGeometry relative="1" as="geometry">
            <Array as="points">
              <mxPoint x="380" y="140" />
            </Array>
          </mxGeometry>
        </mxCell>
        <mxCell id="hCIDlrJWbCCCF7kBdMga-58" style="edgeStyle=elbowEdgeStyle;shape=link;rounded=0;orthogonalLoop=1;jettySize=auto;elbow=vertical;html=1;exitX=1;exitY=0.5;exitDx=0;exitDy=0;entryX=1;entryY=0;entryDx=0;entryDy=0;" edge="1" parent="1" source="hCIDlrJWbCCCF7kBdMga-30" target="hCIDlrJWbCCCF7kBdMga-35">
          <mxGeometry relative="1" as="geometry">
            <Array as="points">
              <mxPoint x="510" y="140" />
            </Array>
          </mxGeometry>
        </mxCell>
        <mxCell id="hCIDlrJWbCCCF7kBdMga-65" value="" style="group" vertex="1" connectable="0" parent="1">
          <mxGeometry x="320" y="-28.7" width="100" height="108.26478260869565" as="geometry" />
        </mxCell>
        <mxCell id="hCIDlrJWbCCCF7kBdMga-18" value="M" style="dashed=0;outlineConnect=0;align=center;html=1;shape=mxgraph.pid.engines.electric_motor_(dc);fontSize=45;" vertex="1" parent="hCIDlrJWbCCCF7kBdMga-65">
          <mxGeometry width="100.00000000000001" height="95.65217391304348" as="geometry" />
        </mxCell>
        <mxCell id="hCIDlrJWbCCCF7kBdMga-19" value="" style="ellipse;shape=doubleEllipse;whiteSpace=wrap;html=1;container=0;rotation=90;" vertex="1" parent="hCIDlrJWbCCCF7kBdMga-65">
          <mxGeometry x="60" y="88.69956521739131" width="20" height="19.130434782608695" as="geometry" />
        </mxCell>
        <mxCell id="hCIDlrJWbCCCF7kBdMga-20" value="" style="ellipse;shape=doubleEllipse;whiteSpace=wrap;html=1;container=0;rotation=90;" vertex="1" parent="hCIDlrJWbCCCF7kBdMga-65">
          <mxGeometry x="20" y="88.69956521739131" width="20" height="19.130434782608695" as="geometry" />
        </mxCell>
        <mxCell id="hCIDlrJWbCCCF7kBdMga-21" value="+" style="text;html=1;strokeColor=none;fillColor=none;align=center;verticalAlign=middle;whiteSpace=wrap;rounded=0;container=0;rotation=90;" vertex="1" parent="hCIDlrJWbCCCF7kBdMga-65">
          <mxGeometry x="20" y="68.69652173913043" width="20" height="28.695652173913043" as="geometry" />
        </mxCell>
        <mxCell id="hCIDlrJWbCCCF7kBdMga-22" value="-" style="text;html=1;strokeColor=none;fillColor=none;align=center;verticalAlign=middle;whiteSpace=wrap;rounded=0;container=0;rotation=90;" vertex="1" parent="hCIDlrJWbCCCF7kBdMga-65">
          <mxGeometry x="60" y="68.7" width="20" height="28.69" as="geometry" />
        </mxCell>
        <mxCell id="hCIDlrJWbCCCF7kBdMga-66" style="edgeStyle=elbowEdgeStyle;shape=link;rounded=0;orthogonalLoop=1;jettySize=auto;elbow=vertical;html=1;exitX=1;exitY=0.5;exitDx=0;exitDy=0;entryX=0.463;entryY=0.977;entryDx=0;entryDy=0;entryPerimeter=0;" edge="1" parent="1" source="hCIDlrJWbCCCF7kBdMga-41" target="hCIDlrJWbCCCF7kBdMga-17">
          <mxGeometry relative="1" as="geometry">
            <Array as="points">
              <mxPoint x="200" y="75" />
            </Array>
          </mxGeometry>
        </mxCell>
        <mxCell id="hCIDlrJWbCCCF7kBdMga-67" style="edgeStyle=elbowEdgeStyle;shape=link;rounded=0;orthogonalLoop=1;jettySize=auto;elbow=vertical;html=1;exitX=1;exitY=0.5;exitDx=0;exitDy=0;entryX=1;entryY=0.5;entryDx=0;entryDy=0;" edge="1" parent="1" source="hCIDlrJWbCCCF7kBdMga-36" target="hCIDlrJWbCCCF7kBdMga-19">
          <mxGeometry relative="1" as="geometry">
            <Array as="points">
              <mxPoint x="500" y="80" />
            </Array>
          </mxGeometry>
        </mxCell>
        <mxCell id="hCIDlrJWbCCCF7kBdMga-72" value="48V" style="text;html=1;strokeColor=none;fillColor=none;align=center;verticalAlign=middle;whiteSpace=wrap;rounded=0;" vertex="1" parent="1">
          <mxGeometry x="340" y="340" width="60" height="30" as="geometry" />
        </mxCell>
        <mxCell id="hCIDlrJWbCCCF7kBdMga-73" value="48V" style="text;html=1;strokeColor=none;fillColor=none;align=center;verticalAlign=middle;whiteSpace=wrap;rounded=0;" vertex="1" parent="1">
          <mxGeometry x="340" y="70" width="60" height="30" as="geometry" />
        </mxCell>
        <mxCell id="hCIDlrJWbCCCF7kBdMga-77" style="edgeStyle=elbowEdgeStyle;shape=link;rounded=0;orthogonalLoop=1;jettySize=auto;elbow=vertical;html=1;exitX=1;exitY=0.5;exitDx=0;exitDy=0;entryX=0.833;entryY=0.057;entryDx=0;entryDy=0;entryPerimeter=0;" edge="1" parent="1" source="hCIDlrJWbCCCF7kBdMga-20" target="hCIDlrJWbCCCF7kBdMga-17">
          <mxGeometry relative="1" as="geometry" />
        </mxCell>
        <mxCell id="hCIDlrJWbCCCF7kBdMga-78" value="200A" style="text;html=1;strokeColor=none;fillColor=none;align=center;verticalAlign=middle;whiteSpace=wrap;rounded=0;" vertex="1" parent="1">
          <mxGeometry x="224.5" y="40" width="60" height="30" as="geometry" />
        </mxCell>
        <mxCell id="hCIDlrJWbCCCF7kBdMga-84" value="" style="group;rotation=-90;" vertex="1" connectable="0" parent="1">
          <mxGeometry x="320" y="340" width="20" height="70" as="geometry" />
        </mxCell>
        <mxCell id="hCIDlrJWbCCCF7kBdMga-74" value="" style="rounded=0;whiteSpace=wrap;html=1;rotation=-90;" vertex="1" parent="hCIDlrJWbCCCF7kBdMga-84">
          <mxGeometry width="20" height="70" as="geometry" />
        </mxCell>
        <mxCell id="hCIDlrJWbCCCF7kBdMga-79" value="" style="ellipse;whiteSpace=wrap;html=1;aspect=fixed;rotation=-90;" vertex="1" parent="hCIDlrJWbCCCF7kBdMga-84">
          <mxGeometry x="-17" y="30" width="10" height="10" as="geometry" />
        </mxCell>
        <mxCell id="hCIDlrJWbCCCF7kBdMga-80" value="" style="ellipse;whiteSpace=wrap;html=1;aspect=fixed;rotation=-90;" vertex="1" parent="hCIDlrJWbCCCF7kBdMga-84">
          <mxGeometry x="-2" y="30" width="10" height="10" as="geometry" />
        </mxCell>
        <mxCell id="hCIDlrJWbCCCF7kBdMga-82" value="" style="ellipse;whiteSpace=wrap;html=1;aspect=fixed;rotation=-90;" vertex="1" parent="hCIDlrJWbCCCF7kBdMga-84">
          <mxGeometry x="13" y="30" width="10" height="10" as="geometry" />
        </mxCell>
        <mxCell id="hCIDlrJWbCCCF7kBdMga-83" value="" style="ellipse;whiteSpace=wrap;html=1;aspect=fixed;rotation=-90;" vertex="1" parent="hCIDlrJWbCCCF7kBdMga-84">
          <mxGeometry x="28" y="30" width="10" height="10" as="geometry" />
        </mxCell>
        <mxCell id="hCIDlrJWbCCCF7kBdMga-85" value="" style="group;rotation=90;" vertex="1" connectable="0" parent="1">
          <mxGeometry x="400" y="340" width="20" height="70" as="geometry" />
        </mxCell>
        <mxCell id="hCIDlrJWbCCCF7kBdMga-86" value="" style="rounded=0;whiteSpace=wrap;html=1;rotation=90;" vertex="1" parent="hCIDlrJWbCCCF7kBdMga-85">
          <mxGeometry width="20" height="70" as="geometry" />
        </mxCell>
        <mxCell id="hCIDlrJWbCCCF7kBdMga-87" value="" style="ellipse;whiteSpace=wrap;html=1;aspect=fixed;rotation=90;" vertex="1" parent="hCIDlrJWbCCCF7kBdMga-85">
          <mxGeometry x="28" y="30" width="10" height="10" as="geometry" />
        </mxCell>
        <mxCell id="hCIDlrJWbCCCF7kBdMga-88" value="" style="ellipse;whiteSpace=wrap;html=1;aspect=fixed;rotation=90;" vertex="1" parent="hCIDlrJWbCCCF7kBdMga-85">
          <mxGeometry x="13" y="30" width="10" height="10" as="geometry" />
        </mxCell>
        <mxCell id="hCIDlrJWbCCCF7kBdMga-89" value="" style="ellipse;whiteSpace=wrap;html=1;aspect=fixed;rotation=90;" vertex="1" parent="hCIDlrJWbCCCF7kBdMga-85">
          <mxGeometry x="-2" y="30" width="10" height="10" as="geometry" />
        </mxCell>
        <mxCell id="hCIDlrJWbCCCF7kBdMga-90" value="" style="ellipse;whiteSpace=wrap;html=1;aspect=fixed;rotation=90;" vertex="1" parent="hCIDlrJWbCCCF7kBdMga-85">
          <mxGeometry x="-17" y="30" width="10" height="10" as="geometry" />
        </mxCell>
        <mxCell id="hCIDlrJWbCCCF7kBdMga-95" style="edgeStyle=orthogonalEdgeStyle;shape=link;rounded=0;orthogonalLoop=1;jettySize=auto;html=1;exitX=0.5;exitY=0;exitDx=0;exitDy=0;elbow=vertical;entryX=1;entryY=0;entryDx=0;entryDy=0;width=2.7272727272727266;" edge="1" parent="1" source="hCIDlrJWbCCCF7kBdMga-41" target="hCIDlrJWbCCCF7kBdMga-79">
          <mxGeometry relative="1" as="geometry">
            <mxPoint x="100" y="360" as="targetPoint" />
            <Array as="points">
              <mxPoint x="130" y="180" />
              <mxPoint x="130" y="300" />
              <mxPoint x="304" y="300" />
              <mxPoint x="304" y="372" />
            </Array>
          </mxGeometry>
        </mxCell>
        <mxCell id="hCIDlrJWbCCCF7kBdMga-96" style="edgeStyle=orthogonalEdgeStyle;shape=link;rounded=0;orthogonalLoop=1;jettySize=auto;html=1;exitX=0.5;exitY=1;exitDx=0;exitDy=0;elbow=vertical;entryX=1;entryY=0;entryDx=0;entryDy=0;width=2.7272727272727266;" edge="1" parent="1" source="hCIDlrJWbCCCF7kBdMga-36" target="hCIDlrJWbCCCF7kBdMga-87">
          <mxGeometry relative="1" as="geometry">
            <mxPoint x="694" y="459.5" as="targetPoint" />
            <mxPoint x="510" y="290.5" as="sourcePoint" />
            <Array as="points">
              <mxPoint x="620" y="180" />
              <mxPoint x="620" y="300" />
              <mxPoint x="437" y="300" />
              <mxPoint x="437" y="349" />
            </Array>
          </mxGeometry>
        </mxCell>
        <mxCell id="hCIDlrJWbCCCF7kBdMga-102" style="edgeStyle=orthogonalEdgeStyle;shape=link;rounded=0;orthogonalLoop=1;jettySize=auto;html=1;entryX=0;entryY=0.5;entryDx=0;entryDy=0;elbow=vertical;width=-2.7272727272727275;exitX=1;exitY=0.25;exitDx=0;exitDy=0;" edge="1" parent="1" source="hCIDlrJWbCCCF7kBdMga-98" target="hCIDlrJWbCCCF7kBdMga-80">
          <mxGeometry relative="1" as="geometry">
            <mxPoint x="260" y="330" as="sourcePoint" />
            <Array as="points">
              <mxPoint x="323" y="400" />
            </Array>
          </mxGeometry>
        </mxCell>
        <mxCell id="hCIDlrJWbCCCF7kBdMga-103" style="edgeStyle=orthogonalEdgeStyle;shape=link;rounded=0;orthogonalLoop=1;jettySize=auto;html=1;exitX=1;exitY=0.75;exitDx=0;exitDy=0;entryX=1;entryY=0.5;entryDx=0;entryDy=0;elbow=vertical;" edge="1" parent="1" source="hCIDlrJWbCCCF7kBdMga-98" target="hCIDlrJWbCCCF7kBdMga-88">
          <mxGeometry relative="1" as="geometry">
            <Array as="points">
              <mxPoint x="418" y="420" />
            </Array>
          </mxGeometry>
        </mxCell>
        <mxCell id="hCIDlrJWbCCCF7kBdMga-98" value="120V AC&lt;br&gt;48V DC" style="rounded=0;whiteSpace=wrap;html=1;" vertex="1" parent="1">
          <mxGeometry x="159" y="390" width="100" height="40" as="geometry" />
        </mxCell>
        <mxCell id="hCIDlrJWbCCCF7kBdMga-99" value="120V AC&lt;br&gt;Shore Power" style="text;html=1;strokeColor=none;fillColor=none;align=center;verticalAlign=middle;whiteSpace=wrap;rounded=0;" vertex="1" parent="1">
          <mxGeometry x="70" y="510" width="60" height="30" as="geometry" />
        </mxCell>
        <mxCell id="hCIDlrJWbCCCF7kBdMga-104" value="48V DC&lt;br&gt;12VDC" style="rounded=0;whiteSpace=wrap;html=1;" vertex="1" parent="1">
          <mxGeometry x="335" y="470" width="70" height="40" as="geometry" />
        </mxCell>
        <mxCell id="hCIDlrJWbCCCF7kBdMga-105" style="edgeStyle=orthogonalEdgeStyle;shape=link;rounded=0;orthogonalLoop=1;jettySize=auto;html=1;exitX=0;exitY=0.5;exitDx=0;exitDy=0;entryX=0.25;entryY=0;entryDx=0;entryDy=0;elbow=vertical;" edge="1" parent="1" source="hCIDlrJWbCCCF7kBdMga-83" target="hCIDlrJWbCCCF7kBdMga-104">
          <mxGeometry relative="1" as="geometry">
            <mxPoint x="350" y="430" as="sourcePoint" />
            <Array as="points">
              <mxPoint x="353" y="470" />
            </Array>
          </mxGeometry>
        </mxCell>
        <mxCell id="hCIDlrJWbCCCF7kBdMga-106" style="edgeStyle=orthogonalEdgeStyle;shape=link;rounded=0;orthogonalLoop=1;jettySize=auto;html=1;exitX=1;exitY=0.5;exitDx=0;exitDy=0;entryX=0.75;entryY=0;entryDx=0;entryDy=0;elbow=vertical;" edge="1" parent="1" source="hCIDlrJWbCCCF7kBdMga-90" target="hCIDlrJWbCCCF7kBdMga-104">
          <mxGeometry relative="1" as="geometry" />
        </mxCell>
        <mxCell id="hCIDlrJWbCCCF7kBdMga-107" value="+" style="text;html=1;strokeColor=none;fillColor=none;align=center;verticalAlign=middle;whiteSpace=wrap;rounded=0;" vertex="1" parent="1">
          <mxGeometry x="300" y="340" width="60" height="30" as="geometry" />
        </mxCell>
        <mxCell id="hCIDlrJWbCCCF7kBdMga-108" value="-" style="text;html=1;strokeColor=none;fillColor=none;align=center;verticalAlign=middle;whiteSpace=wrap;rounded=0;" vertex="1" parent="1">
          <mxGeometry x="380" y="340" width="60" height="30" as="geometry" />
        </mxCell>
      </root>
    </mxGraphModel>
  </diagram>
</mxfile>
